solid camera show sticky pad
facet normal 1.0 0.0 0.0
  outer loop
    vertex 9.000000000000002 29.999999999999996 2.8199664825478975e-15
    vertex 9.000000000000002 0.0 30.0
    vertex 9.000000000000002 0.0 2.8199664825478975e-15
  endloop
endfacet
facet normal 1.0 0.0 0.0
  outer loop
    vertex 9.000000000000002 0.0 30.0
    vertex 9.000000000000002 29.999999999999996 2.8199664825478975e-15
    vertex 9.000000000000002 29.999999999999996 30.0
  endloop
endfacet
facet normal -0.0 -1.0 -0.0
  outer loop
    vertex 9.000000000000002 0.0 30.0
    vertex 3.9999999999999996 0.0 2.8199664825478975e-15
    vertex 9.000000000000002 0.0 2.8199664825478975e-15
  endloop
endfacet
facet normal -0.0 -1.0 -0.0
  outer loop
    vertex 3.9999999999999996 0.0 2.8199664825478975e-15
    vertex 9.000000000000002 0.0 30.0
    vertex 3.9999999999999996 0.0 30.0
  endloop
endfacet
facet normal 0.0 1.0 0.0
  outer loop
    vertex 3.9999999999999996 29.999999999999996 30.0
    vertex 9.000000000000002 29.999999999999996 2.8199664825478975e-15
    vertex 3.9999999999999996 29.999999999999996 2.8199664825478975e-15
  endloop
endfacet
facet normal 0.0 1.0 0.0
  outer loop
    vertex 9.000000000000002 29.999999999999996 2.8199664825478975e-15
    vertex 3.9999999999999996 29.999999999999996 30.0
    vertex 9.000000000000002 29.999999999999996 30.0
  endloop
endfacet
facet normal 0.0 0.0 1.0
  outer loop
    vertex 9.000000000000002 0.0 30.0
    vertex 3.9999999999999996 29.999999999999996 30.0
    vertex 3.9999999999999996 0.0 30.0
  endloop
endfacet
facet normal 0.0 0.0 1.0
  outer loop
    vertex 3.9999999999999996 29.999999999999996 30.0
    vertex 9.000000000000002 0.0 30.0
    vertex 9.000000000000002 29.999999999999996 30.0
  endloop
endfacet
facet normal 0.13052619222005601 -2.0856495999764435e-19 0.9914448613738098
  outer loop
    vertex 1.5735238063781518 21.200000000000003 22.995082531765227
    vertex 1.250000000000001 24.500000000000004 23.037675248903895
    vertex 1.250000000000001 21.200000000000003 23.037675248903895
  endloop
endfacet
facet normal 0.13052619222005601 -2.0856495999764435e-19 0.9914448613738098
  outer loop
    vertex 1.250000000000001 24.500000000000004 23.037675248903895
    vertex 1.5735238063781518 21.200000000000003 22.995082531765227
    vertex 1.5735238063781518 24.45740728286134 22.995082531765227
  endloop
endfacet
facet normal 0.9238795325112865 -2.1892217464021703e-18 0.3826834323650902
  outer loop
    vertex 2.4574072828613365 23.57352380637815 22.111199055282047
    vertex 2.3325317547305495 21.200000000000003 22.412675248903895
    vertex 2.4574072828613365 21.200000000000003 22.111199055282047
  endloop
endfacet
facet normal 0.9238795325112865 -2.1892217464021703e-18 0.3826834323650902
  outer loop
    vertex 2.3325317547305495 21.200000000000003 22.412675248903895
    vertex 2.4574072828613365 23.57352380637815 22.111199055282047
    vertex 2.3325317547305495 23.875000000000004 22.412675248903895
  endloop
endfacet
facet normal 0.7933533402912347 -0.6087614290087213 3.9965285346020764e-20
  outer loop
    vertex 2.36602540378444 6.0000000000000036 0.0
    vertex 2.207106781186549 5.7928932188134565 22.74478203009044
    vertex 2.207106781186549 5.7928932188134565 0.0
  endloop
endfacet
facet normal 0.7933533402912347 -0.6087614290087213 3.9965285346020764e-20
  outer loop
    vertex 2.207106781186549 5.7928932188134565 22.74478203009044
    vertex 2.36602540378444 6.0000000000000036 0.0
    vertex 2.36602540378444 6.0000000000000036 22.537675248903895
  endloop
endfacet
facet normal -1.0 0.0 0.0
  outer loop
    vertex 0.49999999999999994 24.500000000000004 23.037675248903895
    vertex 0.49999999999999994 5.500000000000004 0.0
    vertex 0.49999999999999994 5.500000000000004 23.037675248903895
  endloop
endfacet
facet normal -1.0 0.0 0.0
  outer loop
    vertex 0.49999999999999994 5.500000000000004 0.0
    vertex 0.49999999999999994 24.500000000000004 23.037675248903895
    vertex 0.49999999999999994 24.500000000000004 0.0
  endloop
endfacet
facet normal 0.9914448613738105 -6.63128477759785e-19 0.1305261922200519
  outer loop
    vertex 2.500000000000001 23.250000000000004 21.7876752489039
    vertex 2.4574072828613365 21.200000000000003 22.111199055282047
    vertex 2.500000000000001 21.200000000000003 21.7876752489039
  endloop
endfacet
facet normal 0.9914448613738105 -6.63128477759785e-19 0.1305261922200519
  outer loop
    vertex 2.4574072828613365 21.200000000000003 22.111199055282047
    vertex 2.500000000000001 23.250000000000004 21.7876752489039
    vertex 2.4574072828613365 23.57352380637815 22.111199055282047
  endloop
endfacet
facet normal 0.3826834323650822 1.1995360067167115e-18 0.92387953251129
  outer loop
    vertex 1.8750000000000009 21.200000000000003 22.870207003634444
    vertex 1.5735238063781518 24.45740728286134 22.995082531765227
    vertex 1.5735238063781518 21.200000000000003 22.995082531765227
  endloop
endfacet
facet normal 0.3826834323650822 1.1995360067167115e-18 0.92387953251129
  outer loop
    vertex 1.5735238063781518 24.45740728286134 22.995082531765227
    vertex 1.8750000000000009 21.200000000000003 22.870207003634444
    vertex 1.8750000000000009 24.33253175473055 22.870207003634444
  endloop
endfacet
facet normal 0.9238795325112871 -0.382683432365089 2.2173749673705685e-20
  outer loop
    vertex 2.465925826289069 6.241180954897483 0.0
    vertex 2.36602540378444 6.0000000000000036 22.537675248903895
    vertex 2.36602540378444 6.0000000000000036 0.0
  endloop
endfacet
facet normal 0.9238795325112871 -0.382683432365089 2.2173749673705685e-20
  outer loop
    vertex 2.36602540378444 6.0000000000000036 22.537675248903895
    vertex 2.465925826289069 6.241180954897483 0.0
    vertex 2.465925826289069 6.241180954897483 22.29649429400642
  endloop
endfacet
facet normal 0.0 -1.0 0.0
  outer loop
    vertex 1.500000000000001 5.500000000000004 23.037675248903895
    vertex 0.49999999999999994 5.500000000000004 0.0
    vertex 1.500000000000001 5.500000000000004 0.0
  endloop
endfacet
facet normal 0.0 -1.0 0.0
  outer loop
    vertex 0.49999999999999994 5.500000000000004 0.0
    vertex 1.500000000000001 5.500000000000004 23.037675248903895
    vertex 0.49999999999999994 5.500000000000004 23.037675248903895
  endloop
endfacet
facet normal 0.6087614290087213 -0.7933533402912347 -2.260891990187292e-19
  outer loop
    vertex 2.207106781186549 5.7928932188134565 22.74478203009044
    vertex 2.0000000000000013 5.633974596215565 0.0
    vertex 2.207106781186549 5.7928932188134565 0.0
  endloop
endfacet
facet normal 0.6087614290087213 -0.7933533402912347 -2.260891990187292e-19
  outer loop
    vertex 2.0000000000000013 5.633974596215565 0.0
    vertex 2.207106781186549 5.7928932188134565 22.74478203009044
    vertex 2.0000000000000013 5.633974596215565 22.903700652688336
  endloop
endfacet
facet normal 0.382683432365089 -0.9238795325112871 5.881088637826978e-20
  outer loop
    vertex 2.0000000000000013 5.633974596215565 22.903700652688336
    vertex 1.758819045102522 5.534074173710936 0.0
    vertex 2.0000000000000013 5.633974596215565 0.0
  endloop
endfacet
facet normal 0.382683432365089 -0.9238795325112871 5.881088637826978e-20
  outer loop
    vertex 1.758819045102522 5.534074173710936 0.0
    vertex 2.0000000000000013 5.633974596215565 22.903700652688336
    vertex 1.758819045102522 5.534074173710936 23.003601075192964
  endloop
endfacet
facet normal 1.5654125092536499e-15 -6.41860517006881e-17 1.0
  outer loop
    vertex 1.500000000000001 5.500000000000004 23.037675248903895
    vertex 0.49999999999999994 24.500000000000004 23.037675248903895
    vertex 0.49999999999999994 5.500000000000004 23.037675248903895
  endloop
endfacet
facet normal 1.5654125092536499e-15 -6.41860517006881e-17 1.0
  outer loop
    vertex 0.49999999999999994 24.500000000000004 23.037675248903895
    vertex 1.500000000000001 5.500000000000004 23.037675248903895
    vertex 1.250000000000001 21.200000000000003 23.037675248903895
  endloop
endfacet
facet normal 1.5654125092536499e-15 -6.41860517006881e-17 1.0
  outer loop
    vertex 1.250000000000001 21.200000000000003 23.037675248903895
    vertex 1.500000000000001 5.500000000000004 23.037675248903895
    vertex 1.500000000000001 8.800000000000004 23.037675248903895
  endloop
endfacet
facet normal 1.5654125092536499e-15 -6.41860517006881e-17 1.0
  outer loop
    vertex 1.250000000000001 21.200000000000003 23.037675248903895
    vertex 1.500000000000001 8.800000000000004 23.037675248903895
    vertex 2.500000000000001 21.200000000000003 23.037675248903895
  endloop
endfacet
facet normal 1.5654125092536499e-15 -6.41860517006881e-17 1.0
  outer loop
    vertex 2.500000000000001 21.200000000000003 23.037675248903895
    vertex 1.500000000000001 8.800000000000004 23.037675248903895
    vertex 2.499999999999957 20.700000000000003 23.037675248903884
  endloop
endfacet
facet normal 1.5654125092536499e-15 -6.41860517006881e-17 1.0
  outer loop
    vertex 1.500000000000001 8.800000000000004 23.037675248903895
    vertex 2.499999999999958 9.300000000000004 23.037675248903888
    vertex 2.499999999999957 20.700000000000003 23.037675248903884
  endloop
endfacet
facet normal 1.5654125092536499e-15 -6.41860517006881e-17 1.0
  outer loop
    vertex 2.499999999999958 9.300000000000004 23.037675248903888
    vertex 1.500000000000001 8.800000000000004 23.037675248903895
    vertex 2.500000000000001 8.800000000000004 23.037675248903895
  endloop
endfacet
facet normal 1.5654125092536499e-15 -6.41860517006881e-17 1.0
  outer loop
    vertex 2.499999999999958 9.300000000000004 23.037675248903888
    vertex 3.999999999999955 20.700000000000003 23.037675248903888
    vertex 2.499999999999957 20.700000000000003 23.037675248903884
  endloop
endfacet
facet normal 1.5654125092536499e-15 -6.41860517006881e-17 1.0
  outer loop
    vertex 3.999999999999955 20.700000000000003 23.037675248903888
    vertex 2.499999999999958 9.300000000000004 23.037675248903888
    vertex 3.999999999999956 9.300000000000004 23.037675248903888
  endloop
endfacet
facet normal 1.5654125092536499e-15 -6.41860517006881e-17 1.0
  outer loop
    vertex 1.250000000000001 24.500000000000004 23.037675248903895
    vertex 0.49999999999999994 24.500000000000004 23.037675248903895
    vertex 1.250000000000001 21.200000000000003 23.037675248903895
  endloop
endfacet
facet normal 0.0 1.0 0.0
  outer loop
    vertex 2.4574072828613365 21.200000000000003 22.111199055282047
    vertex 2.500000000000001 21.200000000000003 23.037675248903895
    vertex 2.500000000000001 21.200000000000003 21.7876752489039
  endloop
endfacet
facet normal 0.0 1.0 0.0
  outer loop
    vertex 2.500000000000001 21.200000000000003 23.037675248903895
    vertex 2.4574072828613365 21.200000000000003 22.111199055282047
    vertex 2.3325317547305495 21.200000000000003 22.412675248903895
  endloop
endfacet
facet normal 0.0 1.0 0.0
  outer loop
    vertex 2.500000000000001 21.200000000000003 23.037675248903895
    vertex 2.3325317547305495 21.200000000000003 22.412675248903895
    vertex 2.1338834764831853 21.200000000000003 22.67155872538708
  endloop
endfacet
facet normal 0.0 1.0 0.0
  outer loop
    vertex 2.500000000000001 21.200000000000003 23.037675248903895
    vertex 2.1338834764831853 21.200000000000003 22.67155872538708
    vertex 1.8750000000000009 21.200000000000003 22.870207003634444
  endloop
endfacet
facet normal 0.0 1.0 0.0
  outer loop
    vertex 2.500000000000001 21.200000000000003 23.037675248903895
    vertex 1.8750000000000009 21.200000000000003 22.870207003634444
    vertex 1.5735238063781518 21.200000000000003 22.995082531765227
  endloop
endfacet
facet normal 0.0 1.0 0.0
  outer loop
    vertex 2.500000000000001 21.200000000000003 23.037675248903895
    vertex 1.5735238063781518 21.200000000000003 22.995082531765227
    vertex 1.250000000000001 21.200000000000003 23.037675248903895
  endloop
endfacet
facet normal 0.9914448613738105 0.13052619222005188 7.802945536650388e-21
  outer loop
    vertex 2.4574072828613365 23.57352380637815 0.0
    vertex 2.500000000000001 23.250000000000004 21.7876752489039
    vertex 2.500000000000001 23.250000000000004 0.0
  endloop
endfacet
facet normal 0.9914448613738105 0.13052619222005188 7.802945536650388e-21
  outer loop
    vertex 2.500000000000001 23.250000000000004 21.7876752489039
    vertex 2.4574072828613365 23.57352380637815 0.0
    vertex 2.4574072828613365 23.57352380637815 22.111199055282047
  endloop
endfacet
facet normal 0.9238795325112878 0.3826834323650872 -6.146630618041847e-20
  outer loop
    vertex 2.3325317547305495 23.875000000000004 0.0
    vertex 2.4574072828613365 23.57352380637815 22.111199055282047
    vertex 2.4574072828613365 23.57352380637815 0.0
  endloop
endfacet
facet normal 0.9238795325112878 0.3826834323650872 -6.146630618041847e-20
  outer loop
    vertex 2.4574072828613365 23.57352380637815 22.111199055282047
    vertex 2.3325317547305495 23.875000000000004 0.0
    vertex 2.3325317547305495 23.875000000000004 22.412675248903895
  endloop
endfacet
facet normal 0.7933533402912324 0.6087614290087245 2.0599786446563222e-19
  outer loop
    vertex 2.1338834764831853 24.133883476483188 0.0
    vertex 2.3325317547305495 23.875000000000004 22.412675248903895
    vertex 2.3325317547305495 23.875000000000004 0.0
  endloop
endfacet
facet normal 0.7933533402912324 0.6087614290087245 2.0599786446563222e-19
  outer loop
    vertex 2.3325317547305495 23.875000000000004 22.412675248903895
    vertex 2.1338834764831853 24.133883476483188 0.0
    vertex 2.1338834764831853 24.133883476483188 22.67155872538708
  endloop
endfacet
facet normal 0.6087614290087201 0.7933533402912357 -2.235870106695698e-19
  outer loop
    vertex 1.8750000000000009 24.33253175473055 22.870207003634444
    vertex 2.1338834764831853 24.133883476483188 0.0
    vertex 1.8750000000000009 24.33253175473055 0.0
  endloop
endfacet
facet normal 0.6087614290087201 0.7933533402912357 -2.235870106695698e-19
  outer loop
    vertex 2.1338834764831853 24.133883476483188 0.0
    vertex 1.8750000000000009 24.33253175473055 22.870207003634444
    vertex 2.1338834764831853 24.133883476483188 22.67155872538708
  endloop
endfacet
facet normal 0.3826834323650931 0.9238795325112854 -4.370586987447852e-17
  outer loop
    vertex 1.5735238063781518 24.45740728286134 22.995082531765227
    vertex 1.8750000000000009 24.33253175473055 0.0
    vertex 1.5735238063781518 24.457407282861336 0.0
  endloop
endfacet
facet normal 0.3826834323650931 0.9238795325112854 -4.370586987447852e-17
  outer loop
    vertex 1.8750000000000009 24.33253175473055 0.0
    vertex 1.5735238063781518 24.45740728286134 22.995082531765227
    vertex 1.8750000000000009 24.33253175473055 22.870207003634444
  endloop
endfacet
facet normal 0.13052619222005177 0.9914448613738105 -4.662602230136487e-17
  outer loop
    vertex 1.250000000000001 24.500000000000004 23.037675248903895
    vertex 1.5735238063781518 24.457407282861336 0.0
    vertex 1.250000000000001 24.500000000000004 0.0
  endloop
endfacet
facet normal 0.13052619222005177 0.9914448613738105 -4.662602230136487e-17
  outer loop
    vertex 1.5735238063781518 24.457407282861336 0.0
    vertex 1.250000000000001 24.500000000000004 23.037675248903895
    vertex 1.5735238063781518 24.45740728286134 22.995082531765227
  endloop
endfacet
facet normal 0.7933533402912322 1.5513057030122375e-18 0.6087614290087245
  outer loop
    vertex 2.3325317547305495 23.875000000000004 22.412675248903895
    vertex 2.1338834764831853 21.200000000000003 22.67155872538708
    vertex 2.3325317547305495 21.200000000000003 22.412675248903895
  endloop
endfacet
facet normal 0.7933533402912322 1.5513057030122375e-18 0.6087614290087245
  outer loop
    vertex 2.1338834764831853 21.200000000000003 22.67155872538708
    vertex 2.3325317547305495 23.875000000000004 22.412675248903895
    vertex 2.1338834764831853 24.133883476483188 22.67155872538708
  endloop
endfacet
facet normal 0.6087614290087255 2.655062483953756e-18 0.7933533402912315
  outer loop
    vertex 2.1338834764831853 21.200000000000003 22.67155872538708
    vertex 1.8750000000000009 24.33253175473055 22.870207003634444
    vertex 1.8750000000000009 21.200000000000003 22.870207003634444
  endloop
endfacet
facet normal 0.6087614290087255 2.655062483953756e-18 0.7933533402912315
  outer loop
    vertex 1.8750000000000009 24.33253175473055 22.870207003634444
    vertex 2.1338834764831853 21.200000000000003 22.67155872538708
    vertex 2.1338834764831853 24.133883476483188 22.67155872538708
  endloop
endfacet
facet normal 0.9914448613738105 4.3047636520295853e-19 0.13052619222005077
  outer loop
    vertex 2.500000000000001 6.500000000000005 22.0376752489039
    vertex 2.465925826289069 8.800000000000004 22.29649429400642
    vertex 2.465925826289069 6.241180954897483 22.29649429400642
  endloop
endfacet
facet normal 0.9914448613738105 4.3047636520295853e-19 0.13052619222005077
  outer loop
    vertex 2.465925826289069 8.800000000000004 22.29649429400642
    vertex 2.500000000000001 6.500000000000005 22.0376752489039
    vertex 2.500000000000001 8.800000000000004 22.0376752489039
  endloop
endfacet
facet normal 0.0 1.0 0.0
  outer loop
    vertex 0.49999999999999994 24.500000000000004 23.037675248903895
    vertex 1.250000000000001 24.500000000000004 0.0
    vertex 0.49999999999999994 24.500000000000004 0.0
  endloop
endfacet
facet normal 0.0 1.0 0.0
  outer loop
    vertex 1.250000000000001 24.500000000000004 0.0
    vertex 0.49999999999999994 24.500000000000004 23.037675248903895
    vertex 1.250000000000001 24.500000000000004 23.037675248903895
  endloop
endfacet
facet normal 0.6087614290087315 0.0 0.7933533402912268
  outer loop
    vertex 2.207106781186549 5.7928932188134565 22.74478203009044
    vertex 2.0000000000000013 8.800000000000004 22.903700652688336
    vertex 2.0000000000000013 5.633974596215565 22.903700652688336
  endloop
endfacet
facet normal 0.6087614290087315 0.0 0.7933533402912268
  outer loop
    vertex 2.0000000000000013 8.800000000000004 22.903700652688336
    vertex 2.207106781186549 5.7928932188134565 22.74478203009044
    vertex 2.207106781186549 8.800000000000004 22.74478203009044
  endloop
endfacet
facet normal 0.3826834323650821 -2.643043386686428e-19 0.92387953251129
  outer loop
    vertex 2.0000000000000013 5.633974596215565 22.903700652688336
    vertex 1.758819045102522 8.800000000000004 23.003601075192964
    vertex 1.758819045102522 5.534074173710936 23.003601075192964
  endloop
endfacet
facet normal 0.3826834323650821 -2.643043386686428e-19 0.92387953251129
  outer loop
    vertex 1.758819045102522 8.800000000000004 23.003601075192964
    vertex 2.0000000000000013 5.633974596215565 22.903700652688336
    vertex 2.0000000000000013 8.800000000000004 22.903700652688336
  endloop
endfacet
facet normal 0.0 -1.0 0.0
  outer loop
    vertex 2.500000000000001 8.800000000000004 23.037675248903895
    vertex 2.465925826289069 8.800000000000004 22.29649429400642
    vertex 2.500000000000001 8.800000000000004 22.0376752489039
  endloop
endfacet
facet normal 0.0 -1.0 0.0
  outer loop
    vertex 2.465925826289069 8.800000000000004 22.29649429400642
    vertex 2.500000000000001 8.800000000000004 23.037675248903895
    vertex 2.36602540378444 8.800000000000004 22.537675248903895
  endloop
endfacet
facet normal 0.0 -1.0 0.0
  outer loop
    vertex 2.36602540378444 8.800000000000004 22.537675248903895
    vertex 2.500000000000001 8.800000000000004 23.037675248903895
    vertex 2.207106781186549 8.800000000000004 22.74478203009044
  endloop
endfacet
facet normal 0.0 -1.0 0.0
  outer loop
    vertex 2.207106781186549 8.800000000000004 22.74478203009044
    vertex 2.500000000000001 8.800000000000004 23.037675248903895
    vertex 2.0000000000000013 8.800000000000004 22.903700652688336
  endloop
endfacet
facet normal 0.0 -1.0 0.0
  outer loop
    vertex 2.0000000000000013 8.800000000000004 22.903700652688336
    vertex 2.500000000000001 8.800000000000004 23.037675248903895
    vertex 1.758819045102522 8.800000000000004 23.003601075192964
  endloop
endfacet
facet normal 0.0 -1.0 0.0
  outer loop
    vertex 1.758819045102522 8.800000000000004 23.003601075192964
    vertex 2.500000000000001 8.800000000000004 23.037675248903895
    vertex 1.500000000000001 8.800000000000004 23.037675248903895
  endloop
endfacet
facet normal 0.9238795325112855 3.8008221177957624e-19 0.3826834323650928
  outer loop
    vertex 2.465925826289069 6.241180954897483 22.29649429400642
    vertex 2.36602540378444 8.800000000000004 22.537675248903895
    vertex 2.36602540378444 6.0000000000000036 22.537675248903895
  endloop
endfacet
facet normal 0.9238795325112855 3.8008221177957624e-19 0.3826834323650928
  outer loop
    vertex 2.36602540378444 8.800000000000004 22.537675248903895
    vertex 2.465925826289069 6.241180954897483 22.29649429400642
    vertex 2.465925826289069 8.800000000000004 22.29649429400642
  endloop
endfacet
facet normal 0.7933533402912307 -3.7719988637856987e-19 0.6087614290087264
  outer loop
    vertex 2.36602540378444 6.0000000000000036 22.537675248903895
    vertex 2.207106781186549 8.800000000000004 22.74478203009044
    vertex 2.207106781186549 5.7928932188134565 22.74478203009044
  endloop
endfacet
facet normal 0.7933533402912307 -3.7719988637856987e-19 0.6087614290087264
  outer loop
    vertex 2.207106781186549 8.800000000000004 22.74478203009044
    vertex 2.36602540378444 6.0000000000000036 22.537675248903895
    vertex 2.36602540378444 8.800000000000004 22.537675248903895
  endloop
endfacet
facet normal 0.9914448613738105 -0.13052619222005143 -1.6514752842064254e-20
  outer loop
    vertex 2.500000000000001 6.500000000000005 0.0
    vertex 2.465925826289069 6.241180954897483 22.29649429400642
    vertex 2.465925826289069 6.241180954897483 0.0
  endloop
endfacet
facet normal 0.9914448613738105 -0.13052619222005143 -1.6514752842064254e-20
  outer loop
    vertex 2.465925826289069 6.241180954897483 22.29649429400642
    vertex 2.500000000000001 6.500000000000005 0.0
    vertex 2.500000000000001 6.500000000000005 22.0376752489039
  endloop
endfacet
facet normal 0.13052619222005163 -0.9914448613738105 2.4887910078108513e-20
  outer loop
    vertex 1.758819045102522 5.534074173710936 23.003601075192964
    vertex 1.500000000000001 5.500000000000004 0.0
    vertex 1.758819045102522 5.534074173710936 0.0
  endloop
endfacet
facet normal 0.13052619222005163 -0.9914448613738105 2.4887910078108513e-20
  outer loop
    vertex 1.500000000000001 5.500000000000004 0.0
    vertex 1.758819045102522 5.534074173710936 23.003601075192964
    vertex 1.500000000000001 5.500000000000004 23.037675248903895
  endloop
endfacet
facet normal 0.13052619222005163 3.6936666609828325e-20 0.9914448613738105
  outer loop
    vertex 1.758819045102522 5.534074173710936 23.003601075192964
    vertex 1.500000000000001 8.800000000000004 23.037675248903895
    vertex 1.500000000000001 5.500000000000004 23.037675248903895
  endloop
endfacet
facet normal 0.13052619222005163 3.6936666609828325e-20 0.9914448613738105
  outer loop
    vertex 1.500000000000001 8.800000000000004 23.037675248903895
    vertex 1.758819045102522 5.534074173710936 23.003601075192964
    vertex 1.758819045102522 8.800000000000004 23.003601075192964
  endloop
endfacet
facet normal 1.0 0.0 0.0
  outer loop
    vertex 2.500000000000001 8.800000000000004 0.0
    vertex 2.500000000000001 6.500000000000005 22.0376752489039
    vertex 2.500000000000001 6.500000000000005 0.0
  endloop
endfacet
facet normal 1.0 0.0 0.0
  outer loop
    vertex 2.500000000000001 6.500000000000005 22.0376752489039
    vertex 2.500000000000001 8.800000000000004 0.0
    vertex 2.500000000000001 8.800000000000004 22.0376752489039
  endloop
endfacet
facet normal -1.0 -3.591944721410717e-18 -4.1499897317364227e-16
  outer loop
    vertex 3.9999999999999996 0.0 30.0
    vertex 4.000000000000001 8.800000000000004 23.037675248903895
    vertex 3.9999999999999996 0.0 2.8199664825478975e-15
  endloop
endfacet
facet normal -1.0 -3.591944721410717e-18 -4.1499897317364227e-16
  outer loop
    vertex 4.000000000000001 8.800000000000004 23.037675248903895
    vertex 3.9999999999999996 0.0 30.0
    vertex 3.9999999999999996 29.999999999999996 30.0
  endloop
endfacet
facet normal -1.0 -3.591944721410717e-18 -4.1499897317364227e-16
  outer loop
    vertex 4.000000000000001 8.800000000000004 23.037675248903895
    vertex 3.9999999999999996 29.999999999999996 30.0
    vertex 3.999999999999956 9.300000000000004 23.037675248903888
  endloop
endfacet
facet normal -1.0 -3.591944721410717e-18 -4.1499897317364227e-16
  outer loop
    vertex 3.999999999999956 9.300000000000004 23.037675248903888
    vertex 3.9999999999999996 29.999999999999996 30.0
    vertex 3.999999999999955 20.700000000000003 23.037675248903888
  endloop
endfacet
facet normal -1.0 -3.591944721410717e-18 -4.1499897317364227e-16
  outer loop
    vertex 3.999999999999955 20.700000000000003 23.037675248903888
    vertex 3.9999999999999996 29.999999999999996 30.0
    vertex 4.000000000000001 21.200000000000003 23.037675248903895
  endloop
endfacet
facet normal -1.0 -3.591944721410717e-18 -4.1499897317364227e-16
  outer loop
    vertex 4.000000000000001 21.200000000000003 23.037675248903895
    vertex 3.9999999999999996 29.999999999999996 30.0
    vertex 3.9999999999999996 21.200000000000003 2.8199664825478975e-15
  endloop
endfacet
facet normal -1.0 -3.591944721410717e-18 -4.1499897317364227e-16
  outer loop
    vertex 3.9999999999999996 21.200000000000003 2.8199664825478975e-15
    vertex 3.9999999999999996 29.999999999999996 30.0
    vertex 3.9999999999999996 29.999999999999996 2.8199664825478975e-15
  endloop
endfacet
facet normal -1.0 -3.591944721410717e-18 -4.1499897317364227e-16
  outer loop
    vertex 3.9999999999999996 8.800000000000004 2.8199664825478975e-15
    vertex 3.9999999999999996 0.0 2.8199664825478975e-15
    vertex 4.000000000000001 8.800000000000004 23.037675248903895
  endloop
endfacet
facet normal 0.0 0.0 -1.0
  outer loop
    vertex 9.000000000000002 29.999999999999996 2.8199664825478975e-15
    vertex 3.9999999999999996 21.200000000000003 2.8199664825478975e-15
    vertex 3.9999999999999996 29.999999999999996 2.8199664825478975e-15
  endloop
endfacet
facet normal 0.0 0.0 -1.0
  outer loop
    vertex 3.9999999999999996 21.200000000000003 2.8199664825478975e-15
    vertex 9.000000000000002 29.999999999999996 2.8199664825478975e-15
    vertex 3.9999999999999996 20.700000000000003 2.8199664825478975e-15
  endloop
endfacet
facet normal 0.0 0.0 -1.0
  outer loop
    vertex 3.9999999999999996 20.700000000000003 2.8199664825478975e-15
    vertex 9.000000000000002 29.999999999999996 2.8199664825478975e-15
    vertex 3.9999999999999996 9.300000000000004 2.8199664825478975e-15
  endloop
endfacet
facet normal 0.0 0.0 -1.0
  outer loop
    vertex 3.9999999999999996 9.300000000000004 2.8199664825478975e-15
    vertex 9.000000000000002 29.999999999999996 2.8199664825478975e-15
    vertex 3.9999999999999996 8.800000000000004 2.8199664825478975e-15
  endloop
endfacet
facet normal 0.0 0.0 -1.0
  outer loop
    vertex 3.9999999999999996 8.800000000000004 2.8199664825478975e-15
    vertex 9.000000000000002 29.999999999999996 2.8199664825478975e-15
    vertex 3.9999999999999996 0.0 2.8199664825478975e-15
  endloop
endfacet
facet normal 0.0 0.0 -1.0
  outer loop
    vertex 3.9999999999999996 0.0 2.8199664825478975e-15
    vertex 9.000000000000002 29.999999999999996 2.8199664825478975e-15
    vertex 9.000000000000002 0.0 2.8199664825478975e-15
  endloop
endfacet
facet normal 1.0 0.0 0.0
  outer loop
    vertex 2.500000000000001 23.250000000000004 0.0
    vertex 2.500000000000001 21.200000000000003 21.7876752489039
    vertex 2.500000000000001 21.200000000000003 0.0
  endloop
endfacet
facet normal 1.0 0.0 0.0
  outer loop
    vertex 2.500000000000001 21.200000000000003 21.7876752489039
    vertex 2.500000000000001 23.250000000000004 0.0
    vertex 2.500000000000001 23.250000000000004 21.7876752489039
  endloop
endfacet
facet normal 6.816767246701093e-16 2.9817397830055762e-18 -1.0
  outer loop
    vertex 3.9999999999999996 20.700000000000003 2.8199664825478975e-15
    vertex 2.500000000000001 9.300000000000004 0.0
    vertex 2.500000000000001 20.700000000000003 0.0
  endloop
endfacet
facet normal 6.816767246701093e-16 2.9817397830055762e-18 -1.0
  outer loop
    vertex 2.500000000000001 9.300000000000004 0.0
    vertex 3.9999999999999996 20.700000000000003 2.8199664825478975e-15
    vertex 3.9999999999999996 9.300000000000004 2.8199664825478975e-15
  endloop
endfacet
facet normal 6.816767246701093e-16 2.9817397830055762e-18 -1.0
  outer loop
    vertex 1.250000000000001 24.500000000000004 0.0
    vertex 0.49999999999999994 5.500000000000004 0.0
    vertex 0.49999999999999994 24.500000000000004 0.0
  endloop
endfacet
facet normal 6.816767246701093e-16 2.9817397830055762e-18 -1.0
  outer loop
    vertex 0.49999999999999994 5.500000000000004 0.0
    vertex 1.250000000000001 24.500000000000004 0.0
    vertex 1.500000000000001 5.500000000000004 0.0
  endloop
endfacet
facet normal 6.816767246701093e-16 2.9817397830055762e-18 -1.0
  outer loop
    vertex 1.500000000000001 5.500000000000004 0.0
    vertex 1.250000000000001 24.500000000000004 0.0
    vertex 1.5735238063781518 24.457407282861336 0.0
  endloop
endfacet
facet normal 6.816767246701093e-16 2.9817397830055762e-18 -1.0
  outer loop
    vertex 1.500000000000001 5.500000000000004 0.0
    vertex 1.5735238063781518 24.457407282861336 0.0
    vertex 1.758819045102522 5.534074173710936 0.0
  endloop
endfacet
facet normal 6.816767246701093e-16 2.9817397830055762e-18 -1.0
  outer loop
    vertex 1.758819045102522 5.534074173710936 0.0
    vertex 1.5735238063781518 24.457407282861336 0.0
    vertex 1.8750000000000009 24.33253175473055 0.0
  endloop
endfacet
facet normal 6.816767246701093e-16 2.9817397830055762e-18 -1.0
  outer loop
    vertex 1.758819045102522 5.534074173710936 0.0
    vertex 1.8750000000000009 24.33253175473055 0.0
    vertex 2.0000000000000013 5.633974596215565 0.0
  endloop
endfacet
facet normal 6.816767246701093e-16 2.9817397830055762e-18 -1.0
  outer loop
    vertex 2.0000000000000013 5.633974596215565 0.0
    vertex 1.8750000000000009 24.33253175473055 0.0
    vertex 2.1338834764831853 24.133883476483188 0.0
  endloop
endfacet
facet normal 6.816767246701093e-16 2.9817397830055762e-18 -1.0
  outer loop
    vertex 2.0000000000000013 5.633974596215565 0.0
    vertex 2.1338834764831853 24.133883476483188 0.0
    vertex 2.207106781186549 5.7928932188134565 0.0
  endloop
endfacet
facet normal 6.816767246701093e-16 2.9817397830055762e-18 -1.0
  outer loop
    vertex 2.207106781186549 5.7928932188134565 0.0
    vertex 2.1338834764831853 24.133883476483188 0.0
    vertex 2.3325317547305495 23.875000000000004 0.0
  endloop
endfacet
facet normal 6.816767246701093e-16 2.9817397830055762e-18 -1.0
  outer loop
    vertex 2.207106781186549 5.7928932188134565 0.0
    vertex 2.3325317547305495 23.875000000000004 0.0
    vertex 2.36602540378444 6.0000000000000036 0.0
  endloop
endfacet
facet normal 6.816767246701093e-16 2.9817397830055762e-18 -1.0
  outer loop
    vertex 2.36602540378444 6.0000000000000036 0.0
    vertex 2.3325317547305495 23.875000000000004 0.0
    vertex 2.4574072828613365 23.57352380637815 0.0
  endloop
endfacet
facet normal 6.816767246701093e-16 2.9817397830055762e-18 -1.0
  outer loop
    vertex 2.36602540378444 6.0000000000000036 0.0
    vertex 2.4574072828613365 23.57352380637815 0.0
    vertex 2.465925826289069 6.241180954897483 0.0
  endloop
endfacet
facet normal 6.816767246701093e-16 2.9817397830055762e-18 -1.0
  outer loop
    vertex 2.465925826289069 6.241180954897483 0.0
    vertex 2.4574072828613365 23.57352380637815 0.0
    vertex 2.500000000000001 23.250000000000004 0.0
  endloop
endfacet
facet normal 6.816767246701093e-16 2.9817397830055762e-18 -1.0
  outer loop
    vertex 2.465925826289069 6.241180954897483 0.0
    vertex 2.500000000000001 23.250000000000004 0.0
    vertex 2.500000000000001 6.500000000000005 0.0
  endloop
endfacet
facet normal 6.816767246701093e-16 2.9817397830055762e-18 -1.0
  outer loop
    vertex 2.500000000000001 6.500000000000005 0.0
    vertex 2.500000000000001 23.250000000000004 0.0
    vertex 2.500000000000001 21.200000000000003 0.0
  endloop
endfacet
facet normal 6.816767246701093e-16 2.9817397830055762e-18 -1.0
  outer loop
    vertex 2.500000000000001 6.500000000000005 0.0
    vertex 2.500000000000001 21.200000000000003 0.0
    vertex 2.500000000000001 20.700000000000003 0.0
  endloop
endfacet
facet normal 6.816767246701093e-16 2.9817397830055762e-18 -1.0
  outer loop
    vertex 2.500000000000001 6.500000000000005 0.0
    vertex 2.500000000000001 20.700000000000003 0.0
    vertex 2.500000000000001 9.300000000000004 0.0
  endloop
endfacet
facet normal 6.816767246701093e-16 2.9817397830055762e-18 -1.0
  outer loop
    vertex 2.500000000000001 6.500000000000005 0.0
    vertex 2.500000000000001 9.300000000000004 0.0
    vertex 2.500000000000001 8.800000000000004 0.0
  endloop
endfacet
facet normal 1.0 4.915059166341372e-14 8.26175933275948e-16
  outer loop
    vertex 2.500000000000001 9.300000000000004 0.0
    vertex 2.500000000000001 8.800000000000004 22.0376752489039
    vertex 2.500000000000001 8.800000000000004 0.0
  endloop
endfacet
facet normal 1.0 4.915059166341372e-14 8.26175933275948e-16
  outer loop
    vertex 2.500000000000001 8.800000000000004 22.0376752489039
    vertex 2.500000000000001 9.300000000000004 0.0
    vertex 2.500000000000001 8.800000000000004 23.037675248903895
  endloop
endfacet
facet normal 1.0 4.915059166341372e-14 8.26175933275948e-16
  outer loop
    vertex 2.500000000000001 8.800000000000004 23.037675248903895
    vertex 2.500000000000001 9.300000000000004 0.0
    vertex 2.499999999999958 9.300000000000004 23.037675248903888
  endloop
endfacet
facet normal 0.0 -1.0 0.0
  outer loop
    vertex 3.9999999999999996 9.300000000000004 2.8199664825478975e-15
    vertex 2.499999999999958 9.300000000000004 23.037675248903888
    vertex 2.500000000000001 9.300000000000004 0.0
  endloop
endfacet
facet normal 0.0 -1.0 0.0
  outer loop
    vertex 2.499999999999958 9.300000000000004 23.037675248903888
    vertex 3.9999999999999996 9.300000000000004 2.8199664825478975e-15
    vertex 3.999999999999956 9.300000000000004 23.037675248903888
  endloop
endfacet
facet normal -1.0 -4.5119463720766315e-14 -9.180504712651297e-16
  outer loop
    vertex 3.999999999999956 9.300000000000004 23.037675248903888
    vertex 3.9999999999999996 8.800000000000004 2.8199664825478975e-15
    vertex 4.000000000000001 8.800000000000004 23.037675248903895
  endloop
endfacet
facet normal -1.0 -4.5119463720766315e-14 -9.180504712651297e-16
  outer loop
    vertex 3.9999999999999996 8.800000000000004 2.8199664825478975e-15
    vertex 3.999999999999956 9.300000000000004 23.037675248903888
    vertex 3.9999999999999996 9.300000000000004 2.8199664825478975e-15
  endloop
endfacet
facet normal -1.0 4.582445534140343e-14 -9.333513124528818e-16
  outer loop
    vertex 4.000000000000001 21.200000000000003 23.037675248903895
    vertex 3.9999999999999996 20.700000000000003 2.8199664825478975e-15
    vertex 3.999999999999955 20.700000000000003 23.037675248903888
  endloop
endfacet
facet normal -1.0 4.582445534140343e-14 -9.333513124528818e-16
  outer loop
    vertex 3.9999999999999996 20.700000000000003 2.8199664825478975e-15
    vertex 4.000000000000001 21.200000000000003 23.037675248903895
    vertex 3.9999999999999996 21.200000000000003 2.8199664825478975e-15
  endloop
endfacet
facet normal 0.0 1.0 0.0
  outer loop
    vertex 2.499999999999957 20.700000000000003 23.037675248903884
    vertex 3.9999999999999996 20.700000000000003 2.8199664825478975e-15
    vertex 2.500000000000001 20.700000000000003 0.0
  endloop
endfacet
facet normal 0.0 1.0 0.0
  outer loop
    vertex 3.9999999999999996 20.700000000000003 2.8199664825478975e-15
    vertex 2.499999999999957 20.700000000000003 23.037675248903884
    vertex 3.999999999999955 20.700000000000003 23.037675248903888
  endloop
endfacet
facet normal 1.0 -4.984298651566982e-14 8.444495527068989e-16
  outer loop
    vertex 2.500000000000001 21.200000000000003 0.0
    vertex 2.499999999999957 20.700000000000003 23.037675248903884
    vertex 2.500000000000001 20.700000000000003 0.0
  endloop
endfacet
facet normal 1.0 -4.984298651566982e-14 8.444495527068989e-16
  outer loop
    vertex 2.499999999999957 20.700000000000003 23.037675248903884
    vertex 2.500000000000001 21.200000000000003 0.0
    vertex 2.500000000000001 21.200000000000003 23.037675248903895
  endloop
endfacet
facet normal 1.0 -4.984298651566982e-14 8.444495527068989e-16
  outer loop
    vertex 2.500000000000001 21.200000000000003 23.037675248903895
    vertex 2.500000000000001 21.200000000000003 0.0
    vertex 2.500000000000001 21.200000000000003 21.7876752489039
  endloop
endfacet
endsolid camera show sticky pad
