solid Cold shoe mount gopro
facet normal 0.0 0.0 -1.0
  outer loop
    vertex -5.086598515682644 0.0 44.72277693174562
    vertex -8.586598515682645 -20.0 44.72277693174562
    vertex -8.586598515682645 0.0 44.72277693174562
  endloop
endfacet
facet normal 0.0 0.0 -1.0
  outer loop
    vertex -8.586598515682645 -20.0 44.72277693174562
    vertex -5.086598515682644 0.0 44.72277693174562
    vertex -5.086598515682644 -20.0 44.72277693174562
  endloop
endfacet
facet normal -1.0 0.0 0.0
  outer loop
    vertex -8.586598515682645 0.0 46.32277693174562
    vertex -8.586598515682645 -20.0 44.72277693174562
    vertex -8.586598515682645 -20.0 46.32277693174562
  endloop
endfacet
facet normal -1.0 0.0 0.0
  outer loop
    vertex -8.586598515682645 -20.0 44.72277693174562
    vertex -8.586598515682645 0.0 46.32277693174562
    vertex -8.586598515682645 0.0 44.72277693174562
  endloop
endfacet
facet normal 0.0 -1.0 0.0
  outer loop
    vertex -8.586598515682645 0.0 46.32277693174562
    vertex -21.586598515682645 0.0 44.72277693174562
    vertex -8.586598515682645 0.0 44.72277693174562
  endloop
endfacet
facet normal 0.0 -1.0 0.0
  outer loop
    vertex -21.586598515682645 0.0 44.72277693174562
    vertex -8.586598515682645 0.0 46.32277693174562
    vertex -21.586598515682645 0.0 46.32277693174562
  endloop
endfacet
facet normal 0.0 -1.0 0.0
  outer loop
    vertex -5.086598515682644 0.0 44.72277693174562
    vertex -25.086598515682642 0.0 42.32277693174562
    vertex -5.086598515682644 0.0 42.32277693174562
  endloop
endfacet
facet normal 0.0 -1.0 0.0
  outer loop
    vertex -25.086598515682642 0.0 42.32277693174562
    vertex -5.086598515682644 0.0 44.72277693174562
    vertex -25.086598515682642 0.0 44.72277693174562
  endloop
endfacet
facet normal 0.0 -1.0 0.0
  outer loop
    vertex -25.086598515682642 0.0 44.72277693174562
    vertex -5.086598515682644 0.0 44.72277693174562
    vertex -8.586598515682645 0.0 44.72277693174562
  endloop
endfacet
facet normal 0.0 -1.0 0.0
  outer loop
    vertex -25.086598515682642 0.0 44.72277693174562
    vertex -8.586598515682645 0.0 44.72277693174562
    vertex -21.586598515682645 0.0 44.72277693174562
  endloop
endfacet
facet normal -1.0 0.0 0.0
  outer loop
    vertex -5.086598515682644 0.0 44.72277693174562
    vertex -5.086598515682644 -20.0 42.32277693174562
    vertex -5.086598515682644 -20.0 44.72277693174562
  endloop
endfacet
facet normal -1.0 0.0 0.0
  outer loop
    vertex -5.086598515682644 -20.0 42.32277693174562
    vertex -5.086598515682644 0.0 44.72277693174562
    vertex -5.086598515682644 0.0 42.32277693174562
  endloop
endfacet
facet normal -0.0 -0.0 1.0
  outer loop
    vertex -5.086598515682644 -20.0 42.32277693174562
    vertex -25.086598515682642 0.0 42.32277693174562
    vertex -25.086598515682642 -20.0 42.32277693174562
  endloop
endfacet
facet normal -0.0 -0.0 1.0
  outer loop
    vertex -25.086598515682642 0.0 42.32277693174562
    vertex -5.086598515682644 -20.0 42.32277693174562
    vertex -5.086598515682644 0.0 42.32277693174562
  endloop
endfacet
facet normal 1.0 -0.0 -0.0
  outer loop
    vertex -25.086598515682642 0.0 42.32277693174562
    vertex -25.086598515682642 -20.0 44.72277693174562
    vertex -25.086598515682642 -20.0 42.32277693174562
  endloop
endfacet
facet normal 1.0 -0.0 -0.0
  outer loop
    vertex -25.086598515682642 -20.0 44.72277693174562
    vertex -25.086598515682642 0.0 42.32277693174562
    vertex -25.086598515682642 0.0 44.72277693174562
  endloop
endfacet
facet normal 0.0 0.0 -1.0
  outer loop
    vertex -21.586598515682645 0.0 44.72277693174562
    vertex -25.086598515682642 -20.0 44.72277693174562
    vertex -25.086598515682642 0.0 44.72277693174562
  endloop
endfacet
facet normal 0.0 0.0 -1.0
  outer loop
    vertex -25.086598515682642 -20.0 44.72277693174562
    vertex -21.586598515682645 0.0 44.72277693174562
    vertex -21.586598515682645 -20.0 44.72277693174562
  endloop
endfacet
facet normal 1.0 -0.0 -0.0
  outer loop
    vertex -21.586598515682645 0.0 44.72277693174562
    vertex -21.586598515682645 -20.0 46.32277693174562
    vertex -21.586598515682645 -20.0 44.72277693174562
  endloop
endfacet
facet normal 1.0 -0.0 -0.0
  outer loop
    vertex -21.586598515682645 -20.0 46.32277693174562
    vertex -21.586598515682645 0.0 44.72277693174562
    vertex -21.586598515682645 0.0 46.32277693174562
  endloop
endfacet
facet normal -1.0 -9.41015036578747e-17 -8.196214866549973e-16
  outer loop
    vertex -28.836598515682642 -20.0 42.32277693174562
    vertex -28.83659851568262 -18.198739963945883 39.270999823678906
    vertex -28.83659851568264 -20.000000000000004 38.96074376245978
  endloop
endfacet
facet normal -1.0 -9.41015036578747e-17 -8.196214866549973e-16
  outer loop
    vertex -28.83659851568262 -18.198739963945883 39.270999823678906
    vertex -28.836598515682642 -20.0 42.32277693174562
    vertex -28.836598515682642 3.0 42.32277693174562
  endloop
endfacet
facet normal -1.0 -9.41015036578747e-17 -8.196214866549973e-16
  outer loop
    vertex -28.83659851568262 -18.198739963945883 39.270999823678906
    vertex -28.836598515682642 3.0 42.32277693174562
    vertex -28.836598515682624 -16.269688029742976 39.526209199704304
  endloop
endfacet
facet normal -1.0 -9.41015036578747e-17 -8.196214866549973e-16
  outer loop
    vertex -28.836598515682624 -16.269688029742976 39.526209199704304
    vertex -28.836598515682642 3.0 42.32277693174562
    vertex -28.836598515682624 -14.332145794667555 39.7059403260072
  endloop
endfacet
facet normal -1.0 -9.41015036578747e-17 -8.196214866549973e-16
  outer loop
    vertex -28.836598515682624 -14.332145794667555 39.7059403260072
    vertex -28.836598515682642 3.0 42.32277693174562
    vertex -28.83659851568264 -12.389065366227825 39.80991935792102
  endloop
endfacet
facet normal -1.0 -9.41015036578747e-17 -8.196214866549973e-16
  outer loop
    vertex -28.83659851568264 -12.389065366227825 39.80991935792102
    vertex -28.836598515682642 3.0 42.32277693174562
    vertex -28.83659851568263 -10.443407290118332 39.83798786933494
  endloop
endfacet
facet normal -1.0 -9.41015036578747e-17 -8.196214866549973e-16
  outer loop
    vertex -28.83659851568263 -10.443407290118332 39.83798786933494
    vertex -28.836598515682642 3.0 42.32277693174562
    vertex -28.83659851568265 -8.498136039428202 39.79010309407757
  endloop
endfacet
facet normal -1.0 -9.41015036578747e-17 -8.196214866549973e-16
  outer loop
    vertex -28.83659851568265 -8.498136039428202 39.79010309407757
    vertex -28.836598515682642 3.0 42.32277693174562
    vertex -28.83659851568266 -6.5562154978656375 39.666337991076986
  endloop
endfacet
facet normal -1.0 -9.41015036578747e-17 -8.196214866549973e-16
  outer loop
    vertex -28.83659851568266 -6.5562154978656375 39.666337991076986
    vertex -28.836598515682642 3.0 42.32277693174562
    vertex -28.836598515682624 -4.620604443880851 39.466881133197944
  endloop
endfacet
facet normal -1.0 -9.41015036578747e-17 -8.196214866549973e-16
  outer loop
    vertex -28.836598515682624 -4.620604443880851 39.466881133197944
    vertex -28.836598515682642 3.0 42.32277693174562
    vertex -28.83659851568264 -2.6942520425665792 39.1920364199256
  endloop
endfacet
facet normal -1.0 -9.41015036578747e-17 -8.196214866549973e-16
  outer loop
    vertex -28.83659851568264 -2.6942520425665792 39.1920364199256
    vertex -28.836598515682642 3.0 42.32277693174562
    vertex -28.836598515682653 -0.7800933522066863 38.84222261433358
  endloop
endfacet
facet normal -1.0 -9.41015036578747e-17 -8.196214866549973e-16
  outer loop
    vertex -28.836598515682653 -0.7800933522066863 38.84222261433358
    vertex -28.836598515682642 3.0 42.32277693174562
    vertex -28.83659851568265 1.1189551476818929 38.417972705041834
  endloop
endfacet
facet normal -1.0 -9.41015036578747e-17 -8.196214866549973e-16
  outer loop
    vertex -28.83659851568265 1.1189551476818929 38.417972705041834
    vertex -28.836598515682642 3.0 42.32277693174562
    vertex -28.83659851568264 2.999999999999981 37.91993309413644
  endloop
endfacet
facet normal -1.075891605912528e-16 1.0 -1.0909231244697622e-15
  outer loop
    vertex -28.836598515682642 3.0 42.32277693174562
    vertex -1.336598515682644 3.0 37.91993309413645
    vertex -28.83659851568264 2.999999999999981 37.91993309413644
  endloop
endfacet
facet normal -1.075891605912528e-16 1.0 -1.0909231244697622e-15
  outer loop
    vertex -1.336598515682644 3.0 37.91993309413645
    vertex -28.836598515682642 3.0 42.32277693174562
    vertex -1.336598515682644 3.0 42.32277693174562
  endloop
endfacet
facet normal -1.075891605912528e-16 1.0 -1.0909231244697622e-15
  outer loop
    vertex -1.336598515682644 3.0 42.32277693174562
    vertex -28.836598515682642 3.0 42.32277693174562
    vertex -28.834867583382568 3.0 42.79386119722723
  endloop
endfacet
facet normal -1.075891605912528e-16 1.0 -1.0909231244697622e-15
  outer loop
    vertex -1.336598515682644 3.0 42.32277693174562
    vertex -28.834867583382568 3.0 42.79386119722723
    vertex -1.3383294479827312 2.999999999999998 42.79386119722722
  endloop
endfacet
facet normal -1.075891605912528e-16 1.0 -1.0909231244697622e-15
  outer loop
    vertex -1.3383294479827312 2.999999999999998 42.79386119722722
    vertex -28.834867583382568 3.0 42.79386119722723
    vertex -1.3980266848102638 2.999999999999998 43.26115085175227
  endloop
endfacet
facet normal -1.075891605912528e-16 1.0 -1.0909231244697622e-15
  outer loop
    vertex -1.3980266848102638 2.999999999999998 43.26115085175227
    vertex -28.834867583382568 3.0 42.79386119722723
    vertex -28.77517034655504 3.0 43.26115085175227
  endloop
endfacet
facet normal -1.075891605912528e-16 1.0 -1.0909231244697622e-15
  outer loop
    vertex -1.3980266848102638 2.999999999999998 43.26115085175227
    vertex -28.77517034655504 3.0 43.26115085175227
    vertex -1.514782490265498 3.000000000000003 43.717540447605934
  endloop
endfacet
facet normal -1.075891605912528e-16 1.0 -1.0909231244697622e-15
  outer loop
    vertex -1.514782490265498 3.000000000000003 43.717540447605934
    vertex -28.77517034655504 3.0 43.26115085175227
    vertex -28.658414541099805 3.0 43.71754044760594
  endloop
endfacet
facet normal -1.075891605912528e-16 1.0 -1.0909231244697622e-15
  outer loop
    vertex -1.514782490265498 3.000000000000003 43.717540447605934
    vertex -28.658414541099805 3.0 43.71754044760594
    vertex -1.6868215152410306 3.000000000000003 44.15609027966205
  endloop
endfacet
facet normal -1.075891605912528e-16 1.0 -1.0909231244697622e-15
  outer loop
    vertex -1.6868215152410306 3.000000000000003 44.15609027966205
    vertex -28.658414541099805 3.0 43.71754044760594
    vertex -28.486375516124276 3.0 44.15609027966206
  endloop
endfacet
facet normal -1.075891605912528e-16 1.0 -1.0909231244697622e-15
  outer loop
    vertex -1.6868215152410306 3.000000000000003 44.15609027966205
    vertex -28.486375516124276 3.0 44.15609027966206
    vertex -1.911527792777106 3.000000000000003 44.57013190818128
  endloop
endfacet
facet normal -1.075891605912528e-16 1.0 -1.0909231244697622e-15
  outer loop
    vertex -1.911527792777106 3.000000000000003 44.57013190818128
    vertex -28.486375516124276 3.0 44.15609027966206
    vertex -28.2616692385882 3.0 44.57013190818129
  endloop
endfacet
facet normal -1.075891605912528e-16 1.0 -1.0909231244697622e-15
  outer loop
    vertex -1.911527792777106 3.000000000000003 44.57013190818128
    vertex -28.2616692385882 3.0 44.57013190818129
    vertex -2.185484515566396 3.000000000000003 44.95336955684008
  endloop
endfacet
facet normal -1.075891605912528e-16 1.0 -1.0909231244697622e-15
  outer loop
    vertex -2.185484515566396 3.000000000000003 44.95336955684008
    vertex -28.2616692385882 3.0 44.57013190818129
    vertex -27.987712515798908 3.0 44.95336955684009
  endloop
endfacet
facet normal -1.075891605912528e-16 1.0 -1.0909231244697622e-15
  outer loop
    vertex -2.185484515566396 3.000000000000003 44.95336955684008
    vertex -27.987712515798908 3.0 44.95336955684009
    vertex -2.5045259907649693 3.000000000000003 45.29997584416634
  endloop
endfacet
facet normal -1.075891605912528e-16 1.0 -1.0909231244697622e-15
  outer loop
    vertex -2.5045259907649693 3.000000000000003 45.29997584416634
    vertex -27.987712515798908 3.0 44.95336955684009
    vertex -27.668671040600337 3.0 45.29997584416635
  endloop
endfacet
facet normal -1.075891605912528e-16 1.0 -1.0909231244697622e-15
  outer loop
    vertex -2.5045259907649693 3.000000000000003 45.29997584416634
    vertex -27.668671040600337 3.0 45.29997584416635
    vertex -2.86380098210229 3.000000000000003 45.60468039272205
  endloop
endfacet
facet normal -1.075891605912528e-16 1.0 -1.0909231244697622e-15
  outer loop
    vertex -2.86380098210229 3.000000000000003 45.60468039272205
    vertex -27.668671040600337 3.0 45.29997584416635
    vertex -27.309396049263015 3.0 45.60468039272206
  endloop
endfacet
facet normal -1.075891605912528e-16 1.0 -1.0909231244697622e-15
  outer loop
    vertex -2.86380098210229 3.000000000000003 45.60468039272205
    vertex -27.309396049263015 3.0 45.60468039272206
    vertex -3.257846476131636 3.000000000000003 45.86284996867194
  endloop
endfacet
facet normal -1.075891605912528e-16 1.0 -1.0909231244697622e-15
  outer loop
    vertex -3.257846476131636 3.000000000000003 45.86284996867194
    vertex -27.309396049263015 3.0 45.60468039272206
    vertex -26.91535055523367 3.0 45.86284996867195
  endloop
endfacet
facet normal -1.075891605912528e-16 1.0 -1.0909231244697622e-15
  outer loop
    vertex -3.257846476131636 3.000000000000003 45.86284996867194
    vertex -26.91535055523367 3.0 45.86284996867195
    vertex -3.6806707509563914 3.000000000000003 46.07055893316288
  endloop
endfacet
facet normal -1.075891605912528e-16 1.0 -1.0909231244697622e-15
  outer loop
    vertex -3.6806707509563914 3.000000000000003 46.07055893316288
    vertex -26.91535055523367 3.0 45.86284996867195
    vertex -26.492526280408917 3.0 46.07055893316288
  endloop
endfacet
facet normal -1.075891605912528e-16 1.0 -1.0909231244697622e-15
  outer loop
    vertex -3.6806707509563914 3.000000000000003 46.07055893316288
    vertex -26.492526280408917 3.0 46.07055893316288
    vertex -4.125844484317385 2.999999999999998 46.22464893425448
  endloop
endfacet
facet normal -1.075891605912528e-16 1.0 -1.0909231244697622e-15
  outer loop
    vertex -4.125844484317385 2.999999999999998 46.22464893425448
    vertex -26.492526280408917 3.0 46.07055893316288
    vertex -26.047352547047918 3.0 46.22464893425448
  endloop
endfacet
facet normal -1.075891605912528e-16 1.0 -1.0909231244697622e-15
  outer loop
    vertex -4.125844484317385 2.999999999999998 46.22464893425448
    vertex -26.047352547047918 3.0 46.22464893425448
    vertex -4.586598515682646 3.0 46.32277693174562
  endloop
endfacet
facet normal -1.075891605912528e-16 1.0 -1.0909231244697622e-15
  outer loop
    vertex -4.586598515682646 3.0 46.32277693174562
    vertex -26.047352547047918 3.0 46.22464893425448
    vertex -25.586598515682642 3.0 46.32277693174562
  endloop
endfacet
facet normal -0.0 -0.0 1.0
  outer loop
    vertex -4.586598515682646 -20.0 46.32277693174562
    vertex -8.586598515682645 0.0 46.32277693174562
    vertex -8.586598515682645 -20.0 46.32277693174562
  endloop
endfacet
facet normal -0.0 -0.0 1.0
  outer loop
    vertex -21.586598515682645 -20.0 46.32277693174562
    vertex -25.586598515682642 3.0 46.32277693174562
    vertex -25.586598515682642 -20.0 46.32277693174562
  endloop
endfacet
facet normal -0.0 -0.0 1.0
  outer loop
    vertex -25.586598515682642 3.0 46.32277693174562
    vertex -21.586598515682645 -20.0 46.32277693174562
    vertex -21.586598515682645 0.0 46.32277693174562
  endloop
endfacet
facet normal -0.0 -0.0 1.0
  outer loop
    vertex -25.586598515682642 3.0 46.32277693174562
    vertex -21.586598515682645 0.0 46.32277693174562
    vertex -4.586598515682646 3.0 46.32277693174562
  endloop
endfacet
facet normal -0.0 -0.0 1.0
  outer loop
    vertex -4.586598515682646 3.0 46.32277693174562
    vertex -21.586598515682645 0.0 46.32277693174562
    vertex -8.586598515682645 0.0 46.32277693174562
  endloop
endfacet
facet normal -0.0 -0.0 1.0
  outer loop
    vertex -4.586598515682646 3.0 46.32277693174562
    vertex -8.586598515682645 0.0 46.32277693174562
    vertex -4.586598515682646 -20.0 46.32277693174562
  endloop
endfacet
facet normal -0.9999932496145241 0.0 0.003674333325152668
  outer loop
    vertex -28.834867583382568 3.0 42.79386119722723
    vertex -28.836598515682642 -20.0 42.32277693174562
    vertex -28.834867583382568 -20.0 42.79386119722723
  endloop
endfacet
facet normal -0.9999932496145241 0.0 0.003674333325152668
  outer loop
    vertex -28.836598515682642 -20.0 42.32277693174562
    vertex -28.834867583382568 3.0 42.79386119722723
    vertex -28.836598515682642 3.0 42.32277693174562
  endloop
endfacet
facet normal -0.9919382462541344 -0.0 0.12672219860100364
  outer loop
    vertex -28.77517034655504 3.0 43.26115085175227
    vertex -28.834867583382568 -20.0 42.79386119722723
    vertex -28.77517034655504 -20.0 43.26115085175227
  endloop
endfacet
facet normal -0.9919382462541344 -0.0 0.12672219860100364
  outer loop
    vertex -28.834867583382568 -20.0 42.79386119722723
    vertex -28.77517034655504 3.0 43.26115085175227
    vertex -28.834867583382568 3.0 42.79386119722723
  endloop
endfacet
facet normal -0.9688001669539649 -0.0 0.2478431691815809
  outer loop
    vertex -28.658414541099805 3.0 43.71754044760594
    vertex -28.77517034655504 -20.0 43.26115085175227
    vertex -28.658414541099805 -20.0 43.71754044760594
  endloop
endfacet
facet normal -0.9688001669539649 -0.0 0.2478431691815809
  outer loop
    vertex -28.77517034655504 -20.0 43.26115085175227
    vertex -28.658414541099805 3.0 43.71754044760594
    vertex -28.77517034655504 3.0 43.26115085175227
  endloop
endfacet
facet normal -0.9309308414861828 -0.0 0.3651955207417359
  outer loop
    vertex -28.486375516124276 3.0 44.15609027966206
    vertex -28.658414541099805 -20.0 43.71754044760594
    vertex -28.486375516124276 -20.0 44.15609027966206
  endloop
endfacet
facet normal -0.9309308414861828 -0.0 0.3651955207417359
  outer loop
    vertex -28.658414541099805 -20.0 43.71754044760594
    vertex -28.486375516124276 3.0 44.15609027966206
    vertex -28.658414541099805 3.0 43.71754044760594
  endloop
endfacet
facet normal -0.8789060979469246 -0.0 0.4769948332966627
  outer loop
    vertex -28.2616692385882 3.0 44.57013190818129
    vertex -28.486375516124276 -20.0 44.15609027966206
    vertex -28.2616692385882 -20.0 44.57013190818129
  endloop
endfacet
facet normal -0.8789060979469246 -0.0 0.4769948332966627
  outer loop
    vertex -28.486375516124276 -20.0 44.15609027966206
    vertex -28.2616692385882 3.0 44.57013190818129
    vertex -28.486375516124276 3.0 44.15609027966206
  endloop
endfacet
facet normal -0.8135170069098886 -0.0 0.5815411244859443
  outer loop
    vertex -27.987712515798908 3.0 44.95336955684009
    vertex -28.2616692385882 -20.0 44.57013190818129
    vertex -27.987712515798908 -20.0 44.95336955684009
  endloop
endfacet
facet normal -0.8135170069098886 -0.0 0.5815411244859443
  outer loop
    vertex -28.2616692385882 -20.0 44.57013190818129
    vertex -27.987712515798908 3.0 44.95336955684009
    vertex -28.2616692385882 3.0 44.57013190818129
  endloop
endfacet
facet normal -0.7357578526760258 -0.0 0.6772446989276207
  outer loop
    vertex -27.668671040600337 3.0 45.29997584416635
    vertex -27.987712515798908 -20.0 44.95336955684009
    vertex -27.668671040600337 -20.0 45.29997584416635
  endloop
endfacet
facet normal -0.7357578526760258 -0.0 0.6772446989276207
  outer loop
    vertex -27.987712515798908 -20.0 44.95336955684009
    vertex -27.668671040600337 3.0 45.29997584416635
    vertex -27.987712515798908 3.0 44.95336955684009
  endloop
endfacet
facet normal -0.6468110145242187 -0.0 0.7626503205861459
  outer loop
    vertex -27.309396049263015 -20.0 45.60468039272206
    vertex -27.668671040600337 3.0 45.29997584416635
    vertex -27.668671040600337 -20.0 45.29997584416635
  endloop
endfacet
facet normal -0.6468110145242187 -0.0 0.7626503205861459
  outer loop
    vertex -27.668671040600337 3.0 45.29997584416635
    vertex -27.309396049263015 -20.0 45.60468039272206
    vertex -27.309396049263015 3.0 45.60468039272206
  endloop
endfacet
facet normal -0.5480289878537915 -0.0 0.8364593405969886
  outer loop
    vertex -26.91535055523367 -20.0 45.86284996867195
    vertex -27.309396049263015 3.0 45.60468039272206
    vertex -27.309396049263015 -20.0 45.60468039272206
  endloop
endfacet
facet normal -0.5480289878537915 -0.0 0.8364593405969886
  outer loop
    vertex -27.309396049263015 3.0 45.60468039272206
    vertex -26.91535055523367 -20.0 45.86284996867195
    vertex -26.91535055523367 3.0 45.86284996867195
  endloop
endfacet
facet normal -0.4409138185988986 -0.0 0.897549444080123
  outer loop
    vertex -26.492526280408917 -20.0 46.07055893316288
    vertex -26.91535055523367 3.0 45.86284996867195
    vertex -26.91535055523367 -20.0 45.86284996867195
  endloop
endfacet
facet normal -0.4409138185988986 -0.0 0.897549444080123
  outer loop
    vertex -26.91535055523367 3.0 45.86284996867195
    vertex -26.492526280408917 -20.0 46.07055893316288
    vertex -26.492526280408917 3.0 46.07055893316288
  endloop
endfacet
facet normal -0.327094263628537 -0.0 0.9449917156786641
  outer loop
    vertex -26.047352547047918 -20.0 46.22464893425448
    vertex -26.492526280408917 3.0 46.07055893316288
    vertex -26.492526280408917 -20.0 46.07055893316288
  endloop
endfacet
facet normal -0.327094263628537 -0.0 0.9449917156786641
  outer loop
    vertex -26.492526280408917 3.0 46.07055893316288
    vertex -26.047352547047918 -20.0 46.22464893425448
    vertex -26.047352547047918 3.0 46.22464893425448
  endloop
endfacet
facet normal -0.2083010244228965 -0.0 0.978064764330242
  outer loop
    vertex -25.586598515682642 -20.0 46.32277693174562
    vertex -26.047352547047918 3.0 46.22464893425448
    vertex -26.047352547047918 -20.0 46.22464893425448
  endloop
endfacet
facet normal -0.2083010244228965 -0.0 0.978064764330242
  outer loop
    vertex -26.047352547047918 3.0 46.22464893425448
    vertex -25.586598515682642 -20.0 46.32277693174562
    vertex -25.586598515682642 3.0 46.32277693174562
  endloop
endfacet
facet normal 6.34752695098394e-17 -1.0 2.5090040440532107e-16
  outer loop
    vertex -1.3383294479827186 -20.0 42.79386119722723
    vertex -5.086598515682644 -20.0 42.32277693174562
    vertex -1.336598515682644 -20.0 42.32277693174562
  endloop
endfacet
facet normal 6.34752695098394e-17 -1.0 2.5090040440532107e-16
  outer loop
    vertex -5.086598515682644 -20.0 42.32277693174562
    vertex -1.3383294479827186 -20.0 42.79386119722723
    vertex -5.086598515682644 -20.0 44.72277693174562
  endloop
endfacet
facet normal 6.34752695098394e-17 -1.0 2.5090040440532107e-16
  outer loop
    vertex -5.086598515682644 -20.0 44.72277693174562
    vertex -1.3383294479827186 -20.0 42.79386119722723
    vertex -1.398026684810251 -20.0 43.26115085175227
  endloop
endfacet
facet normal 6.34752695098394e-17 -1.0 2.5090040440532107e-16
  outer loop
    vertex -5.086598515682644 -20.0 44.72277693174562
    vertex -1.398026684810251 -20.0 43.26115085175227
    vertex -1.5147824902654854 -19.999999999999996 43.71754044760594
  endloop
endfacet
facet normal 6.34752695098394e-17 -1.0 2.5090040440532107e-16
  outer loop
    vertex -5.086598515682644 -20.0 44.72277693174562
    vertex -1.5147824902654854 -19.999999999999996 43.71754044760594
    vertex -1.686821515241015 -19.999999999999996 44.15609027966206
  endloop
endfacet
facet normal 6.34752695098394e-17 -1.0 2.5090040440532107e-16
  outer loop
    vertex -5.086598515682644 -20.0 44.72277693174562
    vertex -1.686821515241015 -19.999999999999996 44.15609027966206
    vertex -1.9115277927770904 -19.999999999999996 44.57013190818129
  endloop
endfacet
facet normal 6.34752695098394e-17 -1.0 2.5090040440532107e-16
  outer loop
    vertex -5.086598515682644 -20.0 44.72277693174562
    vertex -1.9115277927770904 -19.999999999999996 44.57013190818129
    vertex -2.1854845155663805 -19.999999999999996 44.95336955684009
  endloop
endfacet
facet normal 6.34752695098394e-17 -1.0 2.5090040440532107e-16
  outer loop
    vertex -5.086598515682644 -20.0 44.72277693174562
    vertex -2.1854845155663805 -19.999999999999996 44.95336955684009
    vertex -8.586598515682645 -20.0 44.72277693174562
  endloop
endfacet
facet normal 6.34752695098394e-17 -1.0 2.5090040440532107e-16
  outer loop
    vertex -8.586598515682645 -20.0 44.72277693174562
    vertex -2.1854845155663805 -19.999999999999996 44.95336955684009
    vertex -8.586598515682645 -20.0 46.32277693174562
  endloop
endfacet
facet normal 6.34752695098394e-17 -1.0 2.5090040440532107e-16
  outer loop
    vertex -8.586598515682645 -20.0 46.32277693174562
    vertex -2.1854845155663805 -19.999999999999996 44.95336955684009
    vertex -2.504525990764954 -19.999999999999996 45.29997584416635
  endloop
endfacet
facet normal 6.34752695098394e-17 -1.0 2.5090040440532107e-16
  outer loop
    vertex -8.586598515682645 -20.0 46.32277693174562
    vertex -2.504525990764954 -19.999999999999996 45.29997584416635
    vertex -2.8638009821022745 -19.999999999999996 45.60468039272206
  endloop
endfacet
facet normal 6.34752695098394e-17 -1.0 2.5090040440532107e-16
  outer loop
    vertex -8.586598515682645 -20.0 46.32277693174562
    vertex -2.8638009821022745 -19.999999999999996 45.60468039272206
    vertex -3.2578464761316206 -19.999999999999996 45.862849968671945
  endloop
endfacet
facet normal 6.34752695098394e-17 -1.0 2.5090040440532107e-16
  outer loop
    vertex -8.586598515682645 -20.0 46.32277693174562
    vertex -3.2578464761316206 -19.999999999999996 45.862849968671945
    vertex -3.680670750956376 -19.999999999999996 46.07055893316288
  endloop
endfacet
facet normal 6.34752695098394e-17 -1.0 2.5090040440532107e-16
  outer loop
    vertex -8.586598515682645 -20.0 46.32277693174562
    vertex -3.680670750956376 -19.999999999999996 46.07055893316288
    vertex -4.125844484317369 -20.0 46.22464893425448
  endloop
endfacet
facet normal 6.34752695098394e-17 -1.0 2.5090040440532107e-16
  outer loop
    vertex -8.586598515682645 -20.0 46.32277693174562
    vertex -4.125844484317369 -20.0 46.22464893425448
    vertex -4.586598515682646 -20.0 46.32277693174562
  endloop
endfacet
facet normal 6.34752695098394e-17 -1.0 2.5090040440532107e-16
  outer loop
    vertex -21.586598515682645 -20.0 46.32277693174562
    vertex -25.086598515682642 -20.0 44.72277693174562
    vertex -21.586598515682645 -20.0 44.72277693174562
  endloop
endfacet
facet normal 6.34752695098394e-17 -1.0 2.5090040440532107e-16
  outer loop
    vertex -25.086598515682642 -20.0 44.72277693174562
    vertex -21.586598515682645 -20.0 46.32277693174562
    vertex -27.987712515798908 -20.0 44.95336955684009
  endloop
endfacet
facet normal 6.34752695098394e-17 -1.0 2.5090040440532107e-16
  outer loop
    vertex -27.987712515798908 -20.0 44.95336955684009
    vertex -21.586598515682645 -20.0 46.32277693174562
    vertex -27.668671040600337 -20.0 45.29997584416635
  endloop
endfacet
facet normal 6.34752695098394e-17 -1.0 2.5090040440532107e-16
  outer loop
    vertex -27.668671040600337 -20.0 45.29997584416635
    vertex -21.586598515682645 -20.0 46.32277693174562
    vertex -27.309396049263015 -20.0 45.60468039272206
  endloop
endfacet
facet normal 6.34752695098394e-17 -1.0 2.5090040440532107e-16
  outer loop
    vertex -27.309396049263015 -20.0 45.60468039272206
    vertex -21.586598515682645 -20.0 46.32277693174562
    vertex -26.91535055523367 -20.0 45.86284996867195
  endloop
endfacet
facet normal 6.34752695098394e-17 -1.0 2.5090040440532107e-16
  outer loop
    vertex -26.91535055523367 -20.0 45.86284996867195
    vertex -21.586598515682645 -20.0 46.32277693174562
    vertex -26.492526280408917 -20.0 46.07055893316288
  endloop
endfacet
facet normal 6.34752695098394e-17 -1.0 2.5090040440532107e-16
  outer loop
    vertex -26.492526280408917 -20.0 46.07055893316288
    vertex -21.586598515682645 -20.0 46.32277693174562
    vertex -26.047352547047918 -20.0 46.22464893425448
  endloop
endfacet
facet normal 6.34752695098394e-17 -1.0 2.5090040440532107e-16
  outer loop
    vertex -26.047352547047918 -20.0 46.22464893425448
    vertex -21.586598515682645 -20.0 46.32277693174562
    vertex -25.586598515682642 -20.0 46.32277693174562
  endloop
endfacet
facet normal 6.34752695098394e-17 -1.0 2.5090040440532107e-16
  outer loop
    vertex -1.336598515682641 -20.0 38.960743762459785
    vertex -28.836598515682642 -20.0 42.32277693174562
    vertex -28.83659851568264 -20.000000000000004 38.96074376245978
  endloop
endfacet
facet normal 6.34752695098394e-17 -1.0 2.5090040440532107e-16
  outer loop
    vertex -28.836598515682642 -20.0 42.32277693174562
    vertex -1.336598515682641 -20.0 38.960743762459785
    vertex -1.336598515682644 -20.0 42.32277693174562
  endloop
endfacet
facet normal 6.34752695098394e-17 -1.0 2.5090040440532107e-16
  outer loop
    vertex -28.836598515682642 -20.0 42.32277693174562
    vertex -1.336598515682644 -20.0 42.32277693174562
    vertex -5.086598515682644 -20.0 42.32277693174562
  endloop
endfacet
facet normal 6.34752695098394e-17 -1.0 2.5090040440532107e-16
  outer loop
    vertex -28.836598515682642 -20.0 42.32277693174562
    vertex -5.086598515682644 -20.0 42.32277693174562
    vertex -25.086598515682642 -20.0 42.32277693174562
  endloop
endfacet
facet normal 6.34752695098394e-17 -1.0 2.5090040440532107e-16
  outer loop
    vertex -28.836598515682642 -20.0 42.32277693174562
    vertex -25.086598515682642 -20.0 42.32277693174562
    vertex -25.086598515682642 -20.0 44.72277693174562
  endloop
endfacet
facet normal 6.34752695098394e-17 -1.0 2.5090040440532107e-16
  outer loop
    vertex -28.836598515682642 -20.0 42.32277693174562
    vertex -25.086598515682642 -20.0 44.72277693174562
    vertex -28.834867583382568 -20.0 42.79386119722723
  endloop
endfacet
facet normal 6.34752695098394e-17 -1.0 2.5090040440532107e-16
  outer loop
    vertex -28.834867583382568 -20.0 42.79386119722723
    vertex -25.086598515682642 -20.0 44.72277693174562
    vertex -28.77517034655504 -20.0 43.26115085175227
  endloop
endfacet
facet normal 6.34752695098394e-17 -1.0 2.5090040440532107e-16
  outer loop
    vertex -28.77517034655504 -20.0 43.26115085175227
    vertex -25.086598515682642 -20.0 44.72277693174562
    vertex -28.658414541099805 -20.0 43.71754044760594
  endloop
endfacet
facet normal 6.34752695098394e-17 -1.0 2.5090040440532107e-16
  outer loop
    vertex -28.658414541099805 -20.0 43.71754044760594
    vertex -25.086598515682642 -20.0 44.72277693174562
    vertex -28.486375516124276 -20.0 44.15609027966206
  endloop
endfacet
facet normal 6.34752695098394e-17 -1.0 2.5090040440532107e-16
  outer loop
    vertex -28.486375516124276 -20.0 44.15609027966206
    vertex -25.086598515682642 -20.0 44.72277693174562
    vertex -28.2616692385882 -20.0 44.57013190818129
  endloop
endfacet
facet normal 6.34752695098394e-17 -1.0 2.5090040440532107e-16
  outer loop
    vertex -28.2616692385882 -20.0 44.57013190818129
    vertex -25.086598515682642 -20.0 44.72277693174562
    vertex -27.987712515798908 -20.0 44.95336955684009
  endloop
endfacet
facet normal 0.20830102442290466 1.9013803426829944e-16 0.9780647643302403
  outer loop
    vertex -4.125844484317369 -20.0 46.22464893425448
    vertex -4.586598515682646 3.0 46.32277693174562
    vertex -4.586598515682646 -20.0 46.32277693174562
  endloop
endfacet
facet normal 0.20830102442290466 1.9013803426829944e-16 0.9780647643302403
  outer loop
    vertex -4.586598515682646 3.0 46.32277693174562
    vertex -4.125844484317369 -20.0 46.22464893425448
    vertex -4.125844484317385 2.999999999999998 46.22464893425448
  endloop
endfacet
facet normal 0.32709426362853977 7.669169775477922e-16 0.9449917156786632
  outer loop
    vertex -4.125844484317369 -20.0 46.22464893425448
    vertex -3.6806707509563914 3.000000000000003 46.07055893316288
    vertex -4.125844484317385 2.999999999999998 46.22464893425448
  endloop
endfacet
facet normal 0.32709426362853977 7.669169775477922e-16 0.9449917156786632
  outer loop
    vertex -3.6806707509563914 3.000000000000003 46.07055893316288
    vertex -4.125844484317369 -20.0 46.22464893425448
    vertex -3.680670750956376 -19.999999999999996 46.07055893316288
  endloop
endfacet
facet normal 0.440913818598907 8.07100135735184e-16 0.8975494440801187
  outer loop
    vertex -3.680670750956376 -19.999999999999996 46.07055893316288
    vertex -3.257846476131636 3.000000000000003 45.86284996867194
    vertex -3.6806707509563914 3.000000000000003 46.07055893316288
  endloop
endfacet
facet normal 0.440913818598907 8.07100135735184e-16 0.8975494440801187
  outer loop
    vertex -3.257846476131636 3.000000000000003 45.86284996867194
    vertex -3.680670750956376 -19.999999999999996 46.07055893316288
    vertex -3.2578464761316206 -19.999999999999996 45.862849968671945
  endloop
endfacet
facet normal 0.5480289878537828 8.350108034885451e-16 0.8364593405969942
  outer loop
    vertex -3.2578464761316206 -19.999999999999996 45.862849968671945
    vertex -2.86380098210229 3.000000000000003 45.60468039272205
    vertex -3.257846476131636 3.000000000000003 45.86284996867194
  endloop
endfacet
facet normal 0.5480289878537828 8.350108034885451e-16 0.8364593405969942
  outer loop
    vertex -2.86380098210229 3.000000000000003 45.60468039272205
    vertex -3.2578464761316206 -19.999999999999996 45.862849968671945
    vertex -2.8638009821022745 -19.999999999999996 45.60468039272206
  endloop
endfacet
facet normal 0.6468110145242199 8.502245806772841e-16 0.7626503205861449
  outer loop
    vertex -2.8638009821022745 -19.999999999999996 45.60468039272206
    vertex -2.5045259907649693 3.000000000000003 45.29997584416634
    vertex -2.86380098210229 3.000000000000003 45.60468039272205
  endloop
endfacet
facet normal 0.6468110145242199 8.502245806772841e-16 0.7626503205861449
  outer loop
    vertex -2.5045259907649693 3.000000000000003 45.29997584416634
    vertex -2.8638009821022745 -19.999999999999996 45.60468039272206
    vertex -2.504525990764954 -19.999999999999996 45.29997584416635
  endloop
endfacet
facet normal 0.735757852676025 8.525101317746816e-16 0.6772446989276215
  outer loop
    vertex -2.185484515566396 3.000000000000003 44.95336955684008
    vertex -2.504525990764954 -19.999999999999996 45.29997584416635
    vertex -2.1854845155663805 -19.999999999999996 44.95336955684009
  endloop
endfacet
facet normal 0.735757852676025 8.525101317746816e-16 0.6772446989276215
  outer loop
    vertex -2.504525990764954 -19.999999999999996 45.29997584416635
    vertex -2.185484515566396 3.000000000000003 44.95336955684008
    vertex -2.5045259907649693 3.000000000000003 45.29997584416634
  endloop
endfacet
facet normal 0.8135170069098913 8.418327034673164e-16 0.5815411244859403
  outer loop
    vertex -1.911527792777106 3.000000000000003 44.57013190818128
    vertex -2.1854845155663805 -19.999999999999996 44.95336955684009
    vertex -1.9115277927770904 -19.999999999999996 44.57013190818129
  endloop
endfacet
facet normal 0.8135170069098913 8.418327034673164e-16 0.5815411244859403
  outer loop
    vertex -2.1854845155663805 -19.999999999999996 44.95336955684009
    vertex -1.911527792777106 3.000000000000003 44.57013190818128
    vertex -2.185484515566396 3.000000000000003 44.95336955684008
  endloop
endfacet
facet normal 0.8789060979469222 8.183546531021401e-16 0.47699483329666736
  outer loop
    vertex -1.6868215152410306 3.000000000000003 44.15609027966205
    vertex -1.9115277927770904 -19.999999999999996 44.57013190818129
    vertex -1.686821515241015 -19.999999999999996 44.15609027966206
  endloop
endfacet
facet normal 0.8789060979469222 8.183546531021401e-16 0.47699483329666736
  outer loop
    vertex -1.9115277927770904 -19.999999999999996 44.57013190818129
    vertex -1.6868215152410306 3.000000000000003 44.15609027966205
    vertex -1.911527792777106 3.000000000000003 44.57013190818128
  endloop
endfacet
facet normal 0.9309308414861838 7.824329799358225e-16 0.3651955207417333
  outer loop
    vertex -1.514782490265498 3.000000000000003 43.717540447605934
    vertex -1.686821515241015 -19.999999999999996 44.15609027966206
    vertex -1.5147824902654854 -19.999999999999996 43.71754044760594
  endloop
endfacet
facet normal 0.9309308414861838 7.824329799358225e-16 0.3651955207417333
  outer loop
    vertex -1.686821515241015 -19.999999999999996 44.15609027966206
    vertex -1.514782490265498 3.000000000000003 43.717540447605934
    vertex -1.6868215152410306 3.000000000000003 44.15609027966205
  endloop
endfacet
facet normal 0.9688001669539643 7.34613896725356e-16 0.24784316918158375
  outer loop
    vertex -1.3980266848102638 2.999999999999998 43.26115085175227
    vertex -1.5147824902654854 -19.999999999999996 43.71754044760594
    vertex -1.398026684810251 -20.0 43.26115085175227
  endloop
endfacet
facet normal 0.9688001669539643 7.34613896725356e-16 0.24784316918158375
  outer loop
    vertex -1.5147824902654854 -19.999999999999996 43.71754044760594
    vertex -1.3980266848102638 2.999999999999998 43.26115085175227
    vertex -1.514782490265498 3.000000000000003 43.717540447605934
  endloop
endfacet
facet normal 0.9919382462541335 6.756245242024578e-16 0.12672219860101103
  outer loop
    vertex -1.3383294479827312 2.999999999999998 42.79386119722722
    vertex -1.398026684810251 -20.0 43.26115085175227
    vertex -1.3383294479827186 -20.0 42.79386119722723
  endloop
endfacet
facet normal 0.9919382462541335 6.756245242024578e-16 0.12672219860101103
  outer loop
    vertex -1.398026684810251 -20.0 43.26115085175227
    vertex -1.3383294479827312 2.999999999999998 42.79386119722722
    vertex -1.3980266848102638 2.999999999999998 43.26115085175227
  endloop
endfacet
facet normal 0.9999932496145241 2.7631267081646548e-16 0.0036743333251661584
  outer loop
    vertex -1.336598515682644 3.0 42.32277693174562
    vertex -1.3383294479827186 -20.0 42.79386119722723
    vertex -1.336598515682644 -20.0 42.32277693174562
  endloop
endfacet
facet normal 0.9999932496145241 2.7631267081646548e-16 0.0036743333251661584
  outer loop
    vertex -1.3383294479827186 -20.0 42.79386119722723
    vertex -1.336598515682644 3.0 42.32277693174562
    vertex -1.3383294479827312 2.999999999999998 42.79386119722722
  endloop
endfacet
facet normal 1.0 6.4870320496273745e-16 2.062281295950708e-16
  outer loop
    vertex -1.3365985156826272 -18.19873996394588 39.27099982367891
    vertex -1.336598515682644 -20.0 42.32277693174562
    vertex -1.336598515682641 -20.0 38.960743762459785
  endloop
endfacet
facet normal 1.0 6.4870320496273745e-16 2.062281295950708e-16
  outer loop
    vertex -1.336598515682644 -20.0 42.32277693174562
    vertex -1.3365985156826272 -18.19873996394588 39.27099982367891
    vertex -1.336598515682644 3.0 42.32277693174562
  endloop
endfacet
facet normal 1.0 6.4870320496273745e-16 2.062281295950708e-16
  outer loop
    vertex -1.336598515682644 3.0 42.32277693174562
    vertex -1.3365985156826272 -18.19873996394588 39.27099982367891
    vertex -1.3365985156826328 -16.269688029742973 39.52620919970431
  endloop
endfacet
facet normal 1.0 6.4870320496273745e-16 2.062281295950708e-16
  outer loop
    vertex -1.336598515682644 3.0 42.32277693174562
    vertex -1.3365985156826328 -16.269688029742973 39.52620919970431
    vertex -1.3365985156826328 -14.332145794667554 39.70594032600721
  endloop
endfacet
facet normal 1.0 6.4870320496273745e-16 2.062281295950708e-16
  outer loop
    vertex -1.336598515682644 3.0 42.32277693174562
    vertex -1.3365985156826328 -14.332145794667554 39.70594032600721
    vertex -1.336598515682644 -12.38906536622782 39.809919357921025
  endloop
endfacet
facet normal 1.0 6.4870320496273745e-16 2.062281295950708e-16
  outer loop
    vertex -1.336598515682644 3.0 42.32277693174562
    vertex -1.336598515682644 -12.38906536622782 39.809919357921025
    vertex -1.3365985156826385 -10.443407290118326 39.83798786933494
  endloop
endfacet
facet normal 1.0 6.4870320496273745e-16 2.062281295950708e-16
  outer loop
    vertex -1.336598515682644 3.0 42.32277693174562
    vertex -1.3365985156826385 -10.443407290118326 39.83798786933494
    vertex -1.3365985156826554 -8.498136039428198 39.79010309407758
  endloop
endfacet
facet normal 1.0 6.4870320496273745e-16 2.062281295950708e-16
  outer loop
    vertex -1.336598515682644 3.0 42.32277693174562
    vertex -1.3365985156826554 -8.498136039428198 39.79010309407758
    vertex -1.3365985156826667 -6.556215497865633 39.66633799107699
  endloop
endfacet
facet normal 1.0 6.4870320496273745e-16 2.062281295950708e-16
  outer loop
    vertex -1.336598515682644 3.0 42.32277693174562
    vertex -1.3365985156826667 -6.556215497865633 39.66633799107699
    vertex -1.3365985156826328 -4.620604443880832 39.46688113319795
  endloop
endfacet
facet normal 1.0 6.4870320496273745e-16 2.062281295950708e-16
  outer loop
    vertex -1.336598515682644 3.0 42.32277693174562
    vertex -1.3365985156826328 -4.620604443880832 39.46688113319795
    vertex -1.336598515682644 -2.6942520425665606 39.19203641992561
  endloop
endfacet
facet normal 1.0 6.4870320496273745e-16 2.062281295950708e-16
  outer loop
    vertex -1.336598515682644 3.0 42.32277693174562
    vertex -1.336598515682644 -2.6942520425665606 39.19203641992561
    vertex -1.336598515682661 -0.7800933522066672 38.84222261433358
  endloop
endfacet
facet normal 1.0 6.4870320496273745e-16 2.062281295950708e-16
  outer loop
    vertex -1.336598515682644 3.0 42.32277693174562
    vertex -1.336598515682661 -0.7800933522066672 38.84222261433358
    vertex -1.3365985156826554 1.1189551476819122 38.41797270504184
  endloop
endfacet
facet normal 1.0 6.4870320496273745e-16 2.062281295950708e-16
  outer loop
    vertex -1.336598515682644 3.0 42.32277693174562
    vertex -1.3365985156826554 1.1189551476819122 38.41797270504184
    vertex -1.336598515682644 3.0 37.91993309413645
  endloop
endfacet
facet normal 3.7582931986367617e-16 -0.25594825733891347 -0.966690482815039
  outer loop
    vertex -28.83659851568264 2.999999999999981 37.91993309413644
    vertex -1.3365985156826554 1.1189551476819122 38.41797270504184
    vertex -28.83659851568265 1.1189551476818929 38.417972705041834
  endloop
endfacet
facet normal 3.7582931986367617e-16 -0.25594825733891347 -0.966690482815039
  outer loop
    vertex -1.3365985156826554 1.1189551476819122 38.41797270504184
    vertex -28.83659851568264 2.999999999999981 37.91993309413644
    vertex -1.336598515682644 3.0 37.91993309413645
  endloop
endfacet
facet normal 7.189454248804555e-16 -0.21802688497409814 -0.9759427633977781
  outer loop
    vertex -28.83659851568265 1.1189551476818929 38.417972705041834
    vertex -1.336598515682661 -0.7800933522066672 38.84222261433358
    vertex -28.836598515682653 -0.7800933522066863 38.84222261433358
  endloop
endfacet
facet normal 7.189454248804555e-16 -0.21802688497409814 -0.9759427633977781
  outer loop
    vertex -1.336598515682661 -0.7800933522066672 38.84222261433358
    vertex -28.83659851568265 1.1189551476818929 38.417972705041834
    vertex -1.3365985156826554 1.1189551476819122 38.41797270504184
  endloop
endfacet
facet normal 6.98233524332985e-16 -0.17977331917758155 -0.9837080632544778
  outer loop
    vertex -1.336598515682661 -0.7800933522066672 38.84222261433358
    vertex -28.83659851568264 -2.6942520425665792 39.1920364199256
    vertex -28.836598515682653 -0.7800933522066863 38.84222261433358
  endloop
endfacet
facet normal 6.98233524332985e-16 -0.17977331917758155 -0.9837080632544778
  outer loop
    vertex -28.83659851568264 -2.6942520425665792 39.1920364199256
    vertex -1.336598515682661 -0.7800933522066672 38.84222261433358
    vertex -1.336598515682644 -2.6942520425665606 39.19203641992561
  endloop
endfacet
facet normal 6.764577706253688e-16 -0.14124584442789057 -0.989974550901109
  outer loop
    vertex -1.336598515682644 -2.6942520425665606 39.19203641992561
    vertex -28.836598515682624 -4.620604443880851 39.466881133197944
    vertex -28.83659851568264 -2.6942520425665792 39.1920364199256
  endloop
endfacet
facet normal 6.764577706253688e-16 -0.14124584442789057 -0.989974550901109
  outer loop
    vertex -28.836598515682624 -4.620604443880851 39.466881133197944
    vertex -1.336598515682644 -2.6942520425665606 39.19203641992561
    vertex -1.3365985156826328 -4.620604443880832 39.46688113319795
  endloop
endfacet
facet normal 6.53651342061992e-16 -0.10250316254088945 -0.9947326784966483
  outer loop
    vertex -28.836598515682624 -4.620604443880851 39.466881133197944
    vertex -1.3365985156826667 -6.556215497865633 39.66633799107699
    vertex -28.83659851568266 -6.5562154978656375 39.666337991076986
  endloop
endfacet
facet normal 6.53651342061992e-16 -0.10250316254088945 -0.9947326784966483
  outer loop
    vertex -1.3365985156826667 -6.556215497865633 39.66633799107699
    vertex -28.836598515682624 -4.620604443880851 39.466881133197944
    vertex -1.3365985156826328 -4.620604443880832 39.46688113319795
  endloop
endfacet
facet normal 6.298489873196945e-16 -0.06360430322958353 -0.9979751963905111
  outer loop
    vertex -1.3365985156826667 -6.556215497865633 39.66633799107699
    vertex -28.83659851568265 -8.498136039428202 39.79010309407757
    vertex -28.83659851568266 -6.5562154978656375 39.666337991076986
  endloop
endfacet
facet normal 6.298489873196945e-16 -0.06360430322958353 -0.9979751963905111
  outer loop
    vertex -28.83659851568265 -8.498136039428202 39.79010309407757
    vertex -1.3365985156826667 -6.556215497865633 39.66633799107699
    vertex -1.3365985156826554 -8.498136039428198 39.79010309407758
  endloop
endfacet
facet normal 6.050869725034755e-16 -0.024608534164395655 -0.9996971641683694
  outer loop
    vertex -1.3365985156826554 -8.498136039428198 39.79010309407758
    vertex -28.83659851568263 -10.443407290118332 39.83798786933494
    vertex -28.83659851568265 -8.498136039428202 39.79010309407757
  endloop
endfacet
facet normal 6.050869725034755e-16 -0.024608534164395655 -0.9996971641683694
  outer loop
    vertex -28.83659851568263 -10.443407290118332 39.83798786933494
    vertex -1.3365985156826554 -8.498136039428198 39.79010309407758
    vertex -1.3365985156826385 -10.443407290118326 39.83798786933494
  endloop
endfacet
facet normal 5.794030258901978e-16 0.014424729329116502 -0.9998959581795408
  outer loop
    vertex -28.83659851568263 -10.443407290118332 39.83798786933494
    vertex -1.336598515682644 -12.38906536622782 39.809919357921025
    vertex -28.83659851568264 -12.389065366227825 39.80991935792102
  endloop
endfacet
facet normal 5.794030258901978e-16 0.014424729329116502 -0.9998959581795408
  outer loop
    vertex -1.336598515682644 -12.38906536622782 39.809919357921025
    vertex -28.83659851568263 -10.443407290118332 39.83798786933494
    vertex -1.3365985156826385 -10.443407290118326 39.83798786933494
  endloop
endfacet
facet normal 5.52836280444423e-16 0.053436014797595056 -0.9985712755344766
  outer loop
    vertex -1.336598515682644 -12.38906536622782 39.809919357921025
    vertex -28.836598515682624 -14.332145794667555 39.7059403260072
    vertex -28.83659851568264 -12.389065366227825 39.80991935792102
  endloop
endfacet
facet normal 5.52836280444423e-16 0.053436014797595056 -0.9985712755344766
  outer loop
    vertex -28.836598515682624 -14.332145794667555 39.7059403260072
    vertex -1.336598515682644 -12.38906536622782 39.809919357921025
    vertex -1.3365985156826328 -14.332145794667554 39.70594032600721
  endloop
endfacet
facet normal 5.254272141940895e-16 0.09236588327414325 -0.9957251345662554
  outer loop
    vertex -1.3365985156826328 -14.332145794667554 39.70594032600721
    vertex -28.836598515682624 -16.269688029742976 39.526209199704304
    vertex -28.836598515682624 -14.332145794667555 39.7059403260072
  endloop
endfacet
facet normal 5.254272141940895e-16 0.09236588327414325 -0.9957251345662554
  outer loop
    vertex -28.836598515682624 -16.269688029742976 39.526209199704304
    vertex -1.3365985156826328 -14.332145794667554 39.70594032600721
    vertex -1.3365985156826328 -16.269688029742973 39.52620919970431
  endloop
endfacet
facet normal 4.972175885567127e-16 0.13115501984170347 -0.991361871755376
  outer loop
    vertex -1.3365985156826328 -16.269688029742973 39.52620919970431
    vertex -28.83659851568262 -18.198739963945883 39.270999823678906
    vertex -28.836598515682624 -16.269688029742976 39.526209199704304
  endloop
endfacet
facet normal 4.972175885567127e-16 0.13115501984170347 -0.991361871755376
  outer loop
    vertex -28.83659851568262 -18.198739963945883 39.270999823678906
    vertex -1.3365985156826328 -16.269688029742973 39.52620919970431
    vertex -1.3365985156826272 -18.19873996394588 39.27099982367891
  endloop
endfacet
facet normal 1.8494135238939273e-16 0.16974432400726278 -0.985488135122548
  outer loop
    vertex -28.83659851568262 -18.198739963945883 39.270999823678906
    vertex -1.336598515682641 -20.0 38.960743762459785
    vertex -28.83659851568264 -20.000000000000004 38.96074376245978
  endloop
endfacet
facet normal 1.8494135238939273e-16 0.16974432400726278 -0.985488135122548
  outer loop
    vertex -1.336598515682641 -20.0 38.960743762459785
    vertex -28.83659851568262 -18.198739963945883 39.270999823678906
    vertex -1.3365985156826272 -18.19873996394588 39.27099982367891
  endloop
endfacet
endsolid Cold shoe mount gopro
